<svg id="visual" viewBox="0 0 960 540" width="960" height="540" xmlns="http://www.w3.org/2000/svg" xmlns:xlink="http://www.w3.org/1999/xlink" version="1.1"><path d="M0 353L20 359.8C40 366.7 80 380.3 120 387.7C160 395 200 396 240 388.2C280 380.3 320 363.7 360 363.2C400 362.7 440 378.3 480 381.3C520 384.3 560 374.7 600 374.2C640 373.7 680 382.3 720 382.7C760 383 800 375 840 377.8C880 380.7 920 394.3 940 401.2L960 408L960 541L940 541C920 541 880 541 840 541C800 541 760 541 720 541C680 541 640 541 600 541C560 541 520 541 480 541C440 541 400 541 360 541C320 541 280 541 240 541C200 541 160 541 120 541C80 541 40 541 20 541L0 541Z" fill="#000000"></path><path d="M0 381L20 386.8C40 392.7 80 404.3 120 411.3C160 418.3 200 420.7 240 416C280 411.3 320 399.7 360 397C400 394.3 440 400.7 480 406C520 411.3 560 415.7 600 418.5C640 421.3 680 422.7 720 425C760 427.3 800 430.7 840 431.2C880 431.7 920 429.3 940 428.2L960 427L960 541L940 541C920 541 880 541 840 541C800 541 760 541 720 541C680 541 640 541 600 541C560 541 520 541 480 541C440 541 400 541 360 541C320 541 280 541 240 541C200 541 160 541 120 541C80 541 40 541 20 541L0 541Z" fill="#3b3b3b"></path><path d="M0 426L20 426.2C40 426.3 80 426.7 120 428.7C160 430.7 200 434.3 240 433.3C280 432.3 320 426.7 360 424.2C400 421.7 440 422.3 480 426.2C520 430 560 437 600 438.5C640 440 680 436 720 432.8C760 429.7 800 427.3 840 426C880 424.7 920 424.3 940 424.2L960 424L960 541L940 541C920 541 880 541 840 541C800 541 760 541 720 541C680 541 640 541 600 541C560 541 520 541 480 541C440 541 400 541 360 541C320 541 280 541 240 541C200 541 160 541 120 541C80 541 40 541 20 541L0 541Z" fill="#777777"></path><path d="M0 461L20 459.7C40 458.3 80 455.7 120 457.2C160 458.7 200 464.3 240 463.3C280 462.3 320 454.7 360 455C400 455.3 440 463.7 480 469.5C520 475.3 560 478.7 600 479.2C640 479.7 680 477.3 720 477.3C760 477.3 800 479.7 840 475.2C880 470.7 920 459.3 940 453.7L960 448L960 541L940 541C920 541 880 541 840 541C800 541 760 541 720 541C680 541 640 541 600 541C560 541 520 541 480 541C440 541 400 541 360 541C320 541 280 541 240 541C200 541 160 541 120 541C80 541 40 541 20 541L0 541Z" fill="#b9b9b9"></path><path d="M0 499L20 498.8C40 498.7 80 498.3 120 498.3C160 498.3 200 498.7 240 496.5C280 494.3 320 489.7 360 488.2C400 486.7 440 488.3 480 488.5C520 488.7 560 487.3 600 488.3C640 489.3 680 492.7 720 494.5C760 496.3 800 496.7 840 497.5C880 498.3 920 499.7 940 500.3L960 501L960 541L940 541C920 541 880 541 840 541C800 541 760 541 720 541C680 541 640 541 600 541C560 541 520 541 480 541C440 541 400 541 360 541C320 541 280 541 240 541C200 541 160 541 120 541C80 541 40 541 20 541L0 541Z" fill="#ffffff"></path></svg>