<svg id="visual" viewBox="0 0 960 540" width="960" height="540" xmlns="http://www.w3.org/2000/svg" xmlns:xlink="http://www.w3.org/1999/xlink" version="1.1"><path d="M0 93L137 96L274 104L411 86L549 103L686 99L823 132L960 123L960 0L823 0L686 0L549 0L411 0L274 0L137 0L0 0Z" fill="#121212"></path><path d="M0 89L137 100L274 110L411 82L549 67L686 80L823 64L960 107L960 0L823 0L686 0L549 0L411 0L274 0L137 0L0 0Z" fill="#0e0e0e"></path><path d="M0 73L137 73L274 54L411 50L549 85L686 82L823 71L960 64L960 0L823 0L686 0L549 0L411 0L274 0L137 0L0 0Z" fill="#0a0a0a"></path><path d="M0 48L137 34L274 40L411 29L549 41L686 46L823 61L960 37L960 0L823 0L686 0L549 0L411 0L274 0L137 0L0 0Z" fill="#050505"></path><path d="M0 22L137 18L274 36L411 28L549 27L686 24L823 24L960 30L960 0L823 0L686 0L549 0L411 0L274 0L137 0L0 0Z" fill="#000000"></path></svg>